%TF.GenerationSoftware,KiCad,Pcbnew,(6.0.7)*%
%TF.CreationDate,2022-08-27T10:35:01+05:30*%
%TF.ProjectId,unix60pcb,756e6978-3630-4706-9362-2e6b69636164,rev?*%
%TF.SameCoordinates,Original*%
%TF.FileFunction,Paste,Bot*%
%TF.FilePolarity,Positive*%
%FSLAX46Y46*%
G04 Gerber Fmt 4.6, Leading zero omitted, Abs format (unit mm)*
G04 Created by KiCad (PCBNEW (6.0.7)) date 2022-08-27 10:35:01*
%MOMM*%
%LPD*%
G01*
G04 APERTURE LIST*
%ADD10R,2.550000X2.500000*%
%ADD11R,1.200000X1.200000*%
%ADD12R,1.700000X1.000000*%
G04 APERTURE END LIST*
D10*
%TO.C,K57-2*%
X256096000Y-83661200D03*
X269023000Y-81121200D03*
%TD*%
%TO.C,K45-2*%
X17970500Y-83661200D03*
X30897500Y-81121200D03*
%TD*%
%TO.C,K31-2*%
X17970500Y-64611200D03*
X30897500Y-62071200D03*
%TD*%
%TO.C,K63*%
X265398000Y-92551200D03*
X252471000Y-95091200D03*
%TD*%
%TO.C,K62*%
X228659000Y-95091200D03*
X241586000Y-92551200D03*
%TD*%
%TO.C,K61*%
X160623000Y-92551200D03*
X147696000Y-95091200D03*
%TD*%
%TO.C,K60*%
X66733800Y-95091200D03*
X79660800Y-92551200D03*
%TD*%
%TO.C,K59*%
X55848200Y-92551200D03*
X42921200Y-95091200D03*
%TD*%
%TO.C,K58*%
X282289000Y-83661200D03*
X295216000Y-81121200D03*
%TD*%
%TO.C,K57*%
X277304000Y-73501200D03*
X264377000Y-76041200D03*
%TD*%
%TO.C,K56*%
X241586000Y-73501200D03*
X228659000Y-76041200D03*
%TD*%
%TO.C,K55*%
X222536000Y-73501200D03*
X209609000Y-76041200D03*
%TD*%
%TO.C,K54*%
X203486000Y-73501200D03*
X190559000Y-76041200D03*
%TD*%
%TO.C,K53*%
X184436000Y-73501200D03*
X171509000Y-76041200D03*
%TD*%
%TO.C,K52*%
X165386000Y-73501200D03*
X152459000Y-76041200D03*
%TD*%
%TO.C,K51*%
X146336000Y-73501200D03*
X133409000Y-76041200D03*
%TD*%
%TO.C,K50*%
X127286000Y-73501200D03*
X114359000Y-76041200D03*
%TD*%
%TO.C,K49*%
X108236000Y-73501200D03*
X95309000Y-76041200D03*
%TD*%
%TO.C,K48*%
X89185800Y-73501200D03*
X76258800Y-76041200D03*
%TD*%
%TO.C,K47*%
X70135800Y-73501200D03*
X57208800Y-76041200D03*
%TD*%
%TO.C,K46*%
X39401800Y-83661200D03*
X52328800Y-81121200D03*
%TD*%
%TO.C,K45*%
X39179500Y-73501200D03*
X26252500Y-76041200D03*
%TD*%
%TO.C,K44*%
X282067000Y-54451200D03*
X269140000Y-56991200D03*
%TD*%
%TO.C,K42*%
X251111000Y-54451200D03*
X238184000Y-56991200D03*
%TD*%
%TO.C,K41*%
X232061000Y-54451200D03*
X219134000Y-56991200D03*
%TD*%
%TO.C,K40*%
X213011000Y-54451200D03*
X200084000Y-56991200D03*
%TD*%
%TO.C,K39*%
X193961000Y-54451200D03*
X181034000Y-56991200D03*
%TD*%
%TO.C,K38*%
X174911000Y-54451200D03*
X161984000Y-56991200D03*
%TD*%
%TO.C,K37*%
X155861000Y-54451200D03*
X142934000Y-56991200D03*
%TD*%
%TO.C,K36*%
X136811000Y-54451200D03*
X123884000Y-56991200D03*
%TD*%
%TO.C,K35*%
X117761000Y-54451200D03*
X104834000Y-56991200D03*
%TD*%
%TO.C,K34*%
X98710800Y-54451200D03*
X85783800Y-56991200D03*
%TD*%
%TO.C,K33*%
X79660800Y-54451200D03*
X66733800Y-56991200D03*
%TD*%
%TO.C,K32*%
X60610800Y-54451200D03*
X47683800Y-56991200D03*
%TD*%
%TO.C,K31*%
X34417000Y-54451200D03*
X21490000Y-56991200D03*
%TD*%
%TO.C,K30*%
X276284000Y-37941200D03*
X289211000Y-35401200D03*
%TD*%
%TO.C,K29*%
X265398000Y-35401200D03*
X252471000Y-37941200D03*
%TD*%
%TO.C,K28*%
X246348000Y-35401200D03*
X233421000Y-37941200D03*
%TD*%
%TO.C,K27*%
X227298000Y-35401200D03*
X214371000Y-37941200D03*
%TD*%
%TO.C,K26*%
X208248000Y-35401200D03*
X195321000Y-37941200D03*
%TD*%
%TO.C,K25*%
X189198000Y-35401200D03*
X176271000Y-37941200D03*
%TD*%
%TO.C,K24*%
X170148000Y-35401200D03*
X157221000Y-37941200D03*
%TD*%
%TO.C,K23*%
X151098000Y-35401200D03*
X138171000Y-37941200D03*
%TD*%
%TO.C,K22*%
X132048000Y-35401200D03*
X119121000Y-37941200D03*
%TD*%
%TO.C,K21*%
X112998000Y-35401200D03*
X100071000Y-37941200D03*
%TD*%
%TO.C,K20*%
X93948200Y-35401200D03*
X81021200Y-37941200D03*
%TD*%
%TO.C,K19*%
X74898200Y-35401200D03*
X61971200Y-37941200D03*
%TD*%
%TO.C,K18*%
X55848200Y-35401200D03*
X42921200Y-37941200D03*
%TD*%
%TO.C,K17*%
X19108800Y-37941200D03*
X32035800Y-35401200D03*
%TD*%
%TO.C,K16*%
X282289000Y-26511200D03*
X295216000Y-23971200D03*
%TD*%
%TO.C,K15*%
X284448000Y-16351200D03*
X271521000Y-18891200D03*
%TD*%
%TO.C,K14*%
X263239000Y-26511200D03*
X276166000Y-23971200D03*
%TD*%
%TO.C,K13*%
X255873000Y-16351200D03*
X242946000Y-18891200D03*
%TD*%
%TO.C,K12*%
X236823000Y-16351200D03*
X223896000Y-18891200D03*
%TD*%
%TO.C,K11*%
X217773000Y-16351200D03*
X204846000Y-18891200D03*
%TD*%
%TO.C,K10*%
X198723000Y-16351200D03*
X185796000Y-18891200D03*
%TD*%
%TO.C,K9*%
X179673000Y-16351200D03*
X166746000Y-18891200D03*
%TD*%
%TO.C,K8*%
X160623000Y-16351200D03*
X147696000Y-18891200D03*
%TD*%
%TO.C,K7*%
X141573000Y-16351200D03*
X128646000Y-18891200D03*
%TD*%
%TO.C,K6*%
X122523000Y-16351200D03*
X109596000Y-18891200D03*
%TD*%
%TO.C,K5*%
X103473200Y-16351200D03*
X90546200Y-18891200D03*
%TD*%
%TO.C,K4*%
X84423200Y-16351200D03*
X71496200Y-18891200D03*
%TD*%
%TO.C,K3*%
X65373200Y-16351200D03*
X52446200Y-18891200D03*
%TD*%
%TO.C,K2*%
X46323200Y-16351200D03*
X33396200Y-18891200D03*
%TD*%
%TO.C,K1*%
X27273200Y-16351200D03*
X14346200Y-18891200D03*
%TD*%
D11*
%TO.C,D15*%
X277060000Y-9644400D03*
X280210000Y-9644400D03*
%TD*%
%TO.C,D1*%
X24203900Y-5603200D03*
X21053900Y-5603200D03*
%TD*%
%TO.C,D2*%
X42504600Y-5656600D03*
X39354600Y-5656600D03*
%TD*%
%TO.C,D3*%
X61106200Y-11906200D03*
X57956200Y-11906200D03*
%TD*%
%TO.C,D4*%
X80156200Y-11906200D03*
X77006200Y-11906200D03*
%TD*%
%TO.C,D5*%
X99151620Y-12560300D03*
X96001620Y-12560300D03*
%TD*%
%TO.C,D6*%
X115106000Y-11906200D03*
X118256000Y-11906200D03*
%TD*%
%TO.C,D7*%
X134156000Y-11906200D03*
X137306000Y-11906200D03*
%TD*%
%TO.C,D8*%
X153206000Y-11906200D03*
X156356000Y-11906200D03*
%TD*%
%TO.C,D9*%
X175406000Y-11906200D03*
X172256000Y-11906200D03*
%TD*%
%TO.C,D10*%
X194456000Y-11906200D03*
X191306000Y-11906200D03*
%TD*%
%TO.C,D11*%
X213506000Y-11906200D03*
X210356000Y-11906200D03*
%TD*%
%TO.C,D12*%
X232556000Y-11906200D03*
X229406000Y-11906200D03*
%TD*%
%TO.C,D13*%
X251606000Y-11906200D03*
X248456000Y-11906200D03*
%TD*%
%TO.C,D14*%
X268275000Y-9525000D03*
X265125000Y-9525000D03*
%TD*%
%TO.C,D16*%
X288937000Y-9525000D03*
X292087000Y-9525000D03*
%TD*%
%TO.C,D17*%
X24618800Y-30956200D03*
X27768800Y-30956200D03*
%TD*%
%TO.C,D18*%
X48431200Y-30956200D03*
X51581200Y-30956200D03*
%TD*%
%TO.C,D19*%
X67481200Y-30956200D03*
X70631200Y-30956200D03*
%TD*%
%TO.C,D20*%
X86531200Y-30956200D03*
X89681200Y-30956200D03*
%TD*%
%TO.C,D21*%
X105581000Y-30956200D03*
X108731000Y-30956200D03*
%TD*%
%TO.C,D22*%
X124631000Y-30956200D03*
X127781000Y-30956200D03*
%TD*%
%TO.C,D23*%
X142069000Y-30956200D03*
X138919000Y-30956200D03*
%TD*%
%TO.C,D24*%
X170644000Y-30956200D03*
X167494000Y-30956200D03*
%TD*%
%TO.C,D25*%
X184931000Y-30956200D03*
X181781000Y-30956200D03*
%TD*%
%TO.C,D26*%
X203981000Y-30956200D03*
X200831000Y-30956200D03*
%TD*%
%TO.C,D27*%
X223031000Y-30956200D03*
X219881000Y-30956200D03*
%TD*%
%TO.C,D28*%
X242081000Y-30956200D03*
X238931000Y-30956200D03*
%TD*%
%TO.C,D29*%
X261131000Y-30956200D03*
X257981000Y-30956200D03*
%TD*%
%TO.C,D30*%
X279362000Y-31399500D03*
X282512000Y-31399500D03*
%TD*%
%TO.C,D31*%
X27000000Y-50006200D03*
X30150000Y-50006200D03*
%TD*%
%TO.C,D32*%
X56343800Y-50006200D03*
X53193800Y-50006200D03*
%TD*%
%TO.C,D33*%
X75393800Y-50006200D03*
X72243800Y-50006200D03*
%TD*%
%TO.C,D34*%
X91293800Y-50006200D03*
X94443800Y-50006200D03*
%TD*%
%TO.C,D35*%
X110344000Y-50006200D03*
X113494000Y-50006200D03*
%TD*%
%TO.C,D36*%
X132544000Y-50006200D03*
X129394000Y-50006200D03*
%TD*%
%TO.C,D37*%
X148444000Y-50006200D03*
X151594000Y-50006200D03*
%TD*%
%TO.C,D38*%
X167494000Y-50006200D03*
X170644000Y-50006200D03*
%TD*%
%TO.C,D39*%
X186544000Y-50006200D03*
X189694000Y-50006200D03*
%TD*%
%TO.C,D40*%
X205594000Y-50006200D03*
X208744000Y-50006200D03*
%TD*%
%TO.C,D41*%
X224644000Y-50006200D03*
X227794000Y-50006200D03*
%TD*%
%TO.C,D42*%
X246844000Y-50006200D03*
X243694000Y-50006200D03*
%TD*%
%TO.C,D44*%
X277800000Y-50006200D03*
X274650000Y-50006200D03*
%TD*%
%TO.C,D45*%
X34912500Y-69056200D03*
X31762500Y-69056200D03*
%TD*%
%TO.C,D46*%
X46818800Y-69056200D03*
X43668800Y-69056200D03*
%TD*%
%TO.C,D47*%
X65868800Y-69056200D03*
X62718800Y-69056200D03*
%TD*%
%TO.C,D48*%
X81768800Y-69056200D03*
X84918800Y-69056200D03*
%TD*%
%TO.C,D49*%
X100819000Y-69056200D03*
X103969000Y-69056200D03*
%TD*%
%TO.C,D50*%
X119869000Y-69056200D03*
X123019000Y-69056200D03*
%TD*%
%TO.C,D51*%
X138919000Y-69056200D03*
X142069000Y-69056200D03*
%TD*%
%TO.C,D52*%
X157969000Y-69056200D03*
X161119000Y-69056200D03*
%TD*%
%TO.C,D53*%
X177019000Y-69056200D03*
X180169000Y-69056200D03*
%TD*%
%TO.C,D54*%
X196069000Y-69056200D03*
X199219000Y-69056200D03*
%TD*%
%TO.C,D55*%
X215119000Y-69056200D03*
X218269000Y-69056200D03*
%TD*%
%TO.C,D56*%
X237319000Y-69056200D03*
X234169000Y-69056200D03*
%TD*%
%TO.C,D57*%
X277162000Y-68737500D03*
X274012000Y-68737500D03*
%TD*%
%TO.C,D58*%
X273195000Y-87886500D03*
X270045000Y-87886500D03*
%TD*%
%TO.C,D59*%
X56766700Y-88051600D03*
X53616700Y-88051600D03*
%TD*%
%TO.C,D60*%
X72243800Y-88106200D03*
X75393800Y-88106200D03*
%TD*%
%TO.C,D61*%
X153206000Y-88106200D03*
X156356000Y-88106200D03*
%TD*%
%TO.C,D62*%
X234169000Y-88106200D03*
X237319000Y-88106200D03*
%TD*%
%TO.C,D63*%
X248196000Y-88503800D03*
X251346000Y-88503800D03*
%TD*%
D12*
%TO.C,SW1*%
X138881000Y-4900000D03*
X132581000Y-4900000D03*
X138881000Y-8700000D03*
X132581000Y-8700000D03*
%TD*%
M02*
