%TF.GenerationSoftware,KiCad,Pcbnew,(6.0.7)*%
%TF.CreationDate,2022-08-27T10:35:01+05:30*%
%TF.ProjectId,unix60pcb,756e6978-3630-4706-9362-2e6b69636164,rev?*%
%TF.SameCoordinates,Original*%
%TF.FileFunction,Legend,Top*%
%TF.FilePolarity,Positive*%
%FSLAX46Y46*%
G04 Gerber Fmt 4.6, Leading zero omitted, Abs format (unit mm)*
G04 Created by KiCad (PCBNEW (6.0.7)) date 2022-08-27 10:35:01*
%MOMM*%
%LPD*%
G01*
G04 APERTURE LIST*
%ADD10C,0.150000*%
%ADD11C,0.200000*%
%ADD12C,0.120000*%
G04 APERTURE END LIST*
D10*
%TO.C,J1*%
X166824380Y-7280233D02*
X167538666Y-7280233D01*
X167681523Y-7327852D01*
X167776761Y-7423090D01*
X167824380Y-7565947D01*
X167824380Y-7661185D01*
X167824380Y-6280233D02*
X167824380Y-6851661D01*
X167824380Y-6565947D02*
X166824380Y-6565947D01*
X166967238Y-6661185D01*
X167062476Y-6756423D01*
X167110095Y-6851661D01*
D11*
%TO.C,D15*%
X276360000Y-10844400D02*
X276360000Y-8444400D01*
X276185000Y-10844400D02*
X276185000Y-8444400D01*
X276010000Y-10844400D02*
X276010000Y-8444400D01*
X275610000Y-8444400D02*
X275610000Y-10844400D01*
X275835000Y-10844400D02*
X275835000Y-8444400D01*
X275710000Y-10844400D02*
X275710000Y-8444400D01*
X275635000Y-10844400D02*
X281435000Y-10844400D01*
X281435000Y-10844400D02*
X281435000Y-8444400D01*
X281435000Y-8444400D02*
X275635000Y-8444400D01*
D12*
%TO.C,J1*%
X171412000Y-8276900D02*
X171412000Y-5616900D01*
X171412000Y-8276900D02*
X179092000Y-8276900D01*
X179092000Y-8276900D02*
X179092000Y-5616900D01*
X171412000Y-5616900D02*
X179092000Y-5616900D01*
X168812000Y-5616900D02*
X170142000Y-5616900D01*
X168812000Y-6946900D02*
X168812000Y-5616900D01*
D11*
%TO.C,D1*%
X25428900Y-4403200D02*
X19628900Y-4403200D01*
X25428900Y-6803200D02*
X25428900Y-4403200D01*
X19628900Y-6803200D02*
X25428900Y-6803200D01*
X19703900Y-6803200D02*
X19703900Y-4403200D01*
X19828900Y-6803200D02*
X19828900Y-4403200D01*
X19603900Y-4403200D02*
X19603900Y-6803200D01*
X20003900Y-6803200D02*
X20003900Y-4403200D01*
X20178900Y-6803200D02*
X20178900Y-4403200D01*
X20353900Y-6803200D02*
X20353900Y-4403200D01*
%TO.C,D2*%
X43729600Y-4456600D02*
X37929600Y-4456600D01*
X43729600Y-6856600D02*
X43729600Y-4456600D01*
X37929600Y-6856600D02*
X43729600Y-6856600D01*
X38004600Y-6856600D02*
X38004600Y-4456600D01*
X38129600Y-6856600D02*
X38129600Y-4456600D01*
X37904600Y-4456600D02*
X37904600Y-6856600D01*
X38304600Y-6856600D02*
X38304600Y-4456600D01*
X38479600Y-6856600D02*
X38479600Y-4456600D01*
X38654600Y-6856600D02*
X38654600Y-4456600D01*
%TO.C,D3*%
X62331200Y-10706200D02*
X56531200Y-10706200D01*
X62331200Y-13106200D02*
X62331200Y-10706200D01*
X56531200Y-13106200D02*
X62331200Y-13106200D01*
X56606200Y-13106200D02*
X56606200Y-10706200D01*
X56731200Y-13106200D02*
X56731200Y-10706200D01*
X56506200Y-10706200D02*
X56506200Y-13106200D01*
X56906200Y-13106200D02*
X56906200Y-10706200D01*
X57081200Y-13106200D02*
X57081200Y-10706200D01*
X57256200Y-13106200D02*
X57256200Y-10706200D01*
%TO.C,D4*%
X81381200Y-10706200D02*
X75581200Y-10706200D01*
X81381200Y-13106200D02*
X81381200Y-10706200D01*
X75581200Y-13106200D02*
X81381200Y-13106200D01*
X75656200Y-13106200D02*
X75656200Y-10706200D01*
X75781200Y-13106200D02*
X75781200Y-10706200D01*
X75556200Y-10706200D02*
X75556200Y-13106200D01*
X75956200Y-13106200D02*
X75956200Y-10706200D01*
X76131200Y-13106200D02*
X76131200Y-10706200D01*
X76306200Y-13106200D02*
X76306200Y-10706200D01*
%TO.C,D5*%
X100376620Y-11360300D02*
X94576620Y-11360300D01*
X100376620Y-13760300D02*
X100376620Y-11360300D01*
X94576620Y-13760300D02*
X100376620Y-13760300D01*
X94651620Y-13760300D02*
X94651620Y-11360300D01*
X94776620Y-13760300D02*
X94776620Y-11360300D01*
X94551620Y-11360300D02*
X94551620Y-13760300D01*
X94951620Y-13760300D02*
X94951620Y-11360300D01*
X95126620Y-13760300D02*
X95126620Y-11360300D01*
X95301620Y-13760300D02*
X95301620Y-11360300D01*
%TO.C,D6*%
X114406000Y-13106200D02*
X114406000Y-10706200D01*
X114231000Y-13106200D02*
X114231000Y-10706200D01*
X114056000Y-13106200D02*
X114056000Y-10706200D01*
X113656000Y-10706200D02*
X113656000Y-13106200D01*
X113881000Y-13106200D02*
X113881000Y-10706200D01*
X113756000Y-13106200D02*
X113756000Y-10706200D01*
X113681000Y-13106200D02*
X119481000Y-13106200D01*
X119481000Y-13106200D02*
X119481000Y-10706200D01*
X119481000Y-10706200D02*
X113681000Y-10706200D01*
%TO.C,D7*%
X133456000Y-13106200D02*
X133456000Y-10706200D01*
X133281000Y-13106200D02*
X133281000Y-10706200D01*
X133106000Y-13106200D02*
X133106000Y-10706200D01*
X132706000Y-10706200D02*
X132706000Y-13106200D01*
X132931000Y-13106200D02*
X132931000Y-10706200D01*
X132806000Y-13106200D02*
X132806000Y-10706200D01*
X132731000Y-13106200D02*
X138531000Y-13106200D01*
X138531000Y-13106200D02*
X138531000Y-10706200D01*
X138531000Y-10706200D02*
X132731000Y-10706200D01*
%TO.C,D8*%
X152506000Y-13106200D02*
X152506000Y-10706200D01*
X152331000Y-13106200D02*
X152331000Y-10706200D01*
X152156000Y-13106200D02*
X152156000Y-10706200D01*
X151756000Y-10706200D02*
X151756000Y-13106200D01*
X151981000Y-13106200D02*
X151981000Y-10706200D01*
X151856000Y-13106200D02*
X151856000Y-10706200D01*
X151781000Y-13106200D02*
X157581000Y-13106200D01*
X157581000Y-13106200D02*
X157581000Y-10706200D01*
X157581000Y-10706200D02*
X151781000Y-10706200D01*
%TO.C,D9*%
X176631000Y-10706200D02*
X170831000Y-10706200D01*
X176631000Y-13106200D02*
X176631000Y-10706200D01*
X170831000Y-13106200D02*
X176631000Y-13106200D01*
X170906000Y-13106200D02*
X170906000Y-10706200D01*
X171031000Y-13106200D02*
X171031000Y-10706200D01*
X170806000Y-10706200D02*
X170806000Y-13106200D01*
X171206000Y-13106200D02*
X171206000Y-10706200D01*
X171381000Y-13106200D02*
X171381000Y-10706200D01*
X171556000Y-13106200D02*
X171556000Y-10706200D01*
%TO.C,D10*%
X195681000Y-10706200D02*
X189881000Y-10706200D01*
X195681000Y-13106200D02*
X195681000Y-10706200D01*
X189881000Y-13106200D02*
X195681000Y-13106200D01*
X189956000Y-13106200D02*
X189956000Y-10706200D01*
X190081000Y-13106200D02*
X190081000Y-10706200D01*
X189856000Y-10706200D02*
X189856000Y-13106200D01*
X190256000Y-13106200D02*
X190256000Y-10706200D01*
X190431000Y-13106200D02*
X190431000Y-10706200D01*
X190606000Y-13106200D02*
X190606000Y-10706200D01*
%TO.C,D11*%
X214731000Y-10706200D02*
X208931000Y-10706200D01*
X214731000Y-13106200D02*
X214731000Y-10706200D01*
X208931000Y-13106200D02*
X214731000Y-13106200D01*
X209006000Y-13106200D02*
X209006000Y-10706200D01*
X209131000Y-13106200D02*
X209131000Y-10706200D01*
X208906000Y-10706200D02*
X208906000Y-13106200D01*
X209306000Y-13106200D02*
X209306000Y-10706200D01*
X209481000Y-13106200D02*
X209481000Y-10706200D01*
X209656000Y-13106200D02*
X209656000Y-10706200D01*
%TO.C,D12*%
X233781000Y-10706200D02*
X227981000Y-10706200D01*
X233781000Y-13106200D02*
X233781000Y-10706200D01*
X227981000Y-13106200D02*
X233781000Y-13106200D01*
X228056000Y-13106200D02*
X228056000Y-10706200D01*
X228181000Y-13106200D02*
X228181000Y-10706200D01*
X227956000Y-10706200D02*
X227956000Y-13106200D01*
X228356000Y-13106200D02*
X228356000Y-10706200D01*
X228531000Y-13106200D02*
X228531000Y-10706200D01*
X228706000Y-13106200D02*
X228706000Y-10706200D01*
%TO.C,D13*%
X252831000Y-10706200D02*
X247031000Y-10706200D01*
X252831000Y-13106200D02*
X252831000Y-10706200D01*
X247031000Y-13106200D02*
X252831000Y-13106200D01*
X247106000Y-13106200D02*
X247106000Y-10706200D01*
X247231000Y-13106200D02*
X247231000Y-10706200D01*
X247006000Y-10706200D02*
X247006000Y-13106200D01*
X247406000Y-13106200D02*
X247406000Y-10706200D01*
X247581000Y-13106200D02*
X247581000Y-10706200D01*
X247756000Y-13106200D02*
X247756000Y-10706200D01*
%TO.C,D14*%
X269500000Y-8325000D02*
X263700000Y-8325000D01*
X269500000Y-10725000D02*
X269500000Y-8325000D01*
X263700000Y-10725000D02*
X269500000Y-10725000D01*
X263775000Y-10725000D02*
X263775000Y-8325000D01*
X263900000Y-10725000D02*
X263900000Y-8325000D01*
X263675000Y-8325000D02*
X263675000Y-10725000D01*
X264075000Y-10725000D02*
X264075000Y-8325000D01*
X264250000Y-10725000D02*
X264250000Y-8325000D01*
X264425000Y-10725000D02*
X264425000Y-8325000D01*
%TO.C,D16*%
X288237000Y-10725000D02*
X288237000Y-8325000D01*
X288062000Y-10725000D02*
X288062000Y-8325000D01*
X287887000Y-10725000D02*
X287887000Y-8325000D01*
X287487000Y-8325000D02*
X287487000Y-10725000D01*
X287712000Y-10725000D02*
X287712000Y-8325000D01*
X287587000Y-10725000D02*
X287587000Y-8325000D01*
X287512000Y-10725000D02*
X293312000Y-10725000D01*
X293312000Y-10725000D02*
X293312000Y-8325000D01*
X293312000Y-8325000D02*
X287512000Y-8325000D01*
%TO.C,D17*%
X23918800Y-32156200D02*
X23918800Y-29756200D01*
X23743800Y-32156200D02*
X23743800Y-29756200D01*
X23568800Y-32156200D02*
X23568800Y-29756200D01*
X23168800Y-29756200D02*
X23168800Y-32156200D01*
X23393800Y-32156200D02*
X23393800Y-29756200D01*
X23268800Y-32156200D02*
X23268800Y-29756200D01*
X23193800Y-32156200D02*
X28993800Y-32156200D01*
X28993800Y-32156200D02*
X28993800Y-29756200D01*
X28993800Y-29756200D02*
X23193800Y-29756200D01*
%TO.C,D18*%
X47731200Y-32156200D02*
X47731200Y-29756200D01*
X47556200Y-32156200D02*
X47556200Y-29756200D01*
X47381200Y-32156200D02*
X47381200Y-29756200D01*
X46981200Y-29756200D02*
X46981200Y-32156200D01*
X47206200Y-32156200D02*
X47206200Y-29756200D01*
X47081200Y-32156200D02*
X47081200Y-29756200D01*
X47006200Y-32156200D02*
X52806200Y-32156200D01*
X52806200Y-32156200D02*
X52806200Y-29756200D01*
X52806200Y-29756200D02*
X47006200Y-29756200D01*
%TO.C,D19*%
X66781200Y-32156200D02*
X66781200Y-29756200D01*
X66606200Y-32156200D02*
X66606200Y-29756200D01*
X66431200Y-32156200D02*
X66431200Y-29756200D01*
X66031200Y-29756200D02*
X66031200Y-32156200D01*
X66256200Y-32156200D02*
X66256200Y-29756200D01*
X66131200Y-32156200D02*
X66131200Y-29756200D01*
X66056200Y-32156200D02*
X71856200Y-32156200D01*
X71856200Y-32156200D02*
X71856200Y-29756200D01*
X71856200Y-29756200D02*
X66056200Y-29756200D01*
%TO.C,D20*%
X85831200Y-32156200D02*
X85831200Y-29756200D01*
X85656200Y-32156200D02*
X85656200Y-29756200D01*
X85481200Y-32156200D02*
X85481200Y-29756200D01*
X85081200Y-29756200D02*
X85081200Y-32156200D01*
X85306200Y-32156200D02*
X85306200Y-29756200D01*
X85181200Y-32156200D02*
X85181200Y-29756200D01*
X85106200Y-32156200D02*
X90906200Y-32156200D01*
X90906200Y-32156200D02*
X90906200Y-29756200D01*
X90906200Y-29756200D02*
X85106200Y-29756200D01*
%TO.C,D21*%
X104881000Y-32156200D02*
X104881000Y-29756200D01*
X104706000Y-32156200D02*
X104706000Y-29756200D01*
X104531000Y-32156200D02*
X104531000Y-29756200D01*
X104131000Y-29756200D02*
X104131000Y-32156200D01*
X104356000Y-32156200D02*
X104356000Y-29756200D01*
X104231000Y-32156200D02*
X104231000Y-29756200D01*
X104156000Y-32156200D02*
X109956000Y-32156200D01*
X109956000Y-32156200D02*
X109956000Y-29756200D01*
X109956000Y-29756200D02*
X104156000Y-29756200D01*
%TO.C,D22*%
X123931000Y-32156200D02*
X123931000Y-29756200D01*
X123756000Y-32156200D02*
X123756000Y-29756200D01*
X123581000Y-32156200D02*
X123581000Y-29756200D01*
X123181000Y-29756200D02*
X123181000Y-32156200D01*
X123406000Y-32156200D02*
X123406000Y-29756200D01*
X123281000Y-32156200D02*
X123281000Y-29756200D01*
X123206000Y-32156200D02*
X129006000Y-32156200D01*
X129006000Y-32156200D02*
X129006000Y-29756200D01*
X129006000Y-29756200D02*
X123206000Y-29756200D01*
%TO.C,D23*%
X143294000Y-29756200D02*
X137494000Y-29756200D01*
X143294000Y-32156200D02*
X143294000Y-29756200D01*
X137494000Y-32156200D02*
X143294000Y-32156200D01*
X137569000Y-32156200D02*
X137569000Y-29756200D01*
X137694000Y-32156200D02*
X137694000Y-29756200D01*
X137469000Y-29756200D02*
X137469000Y-32156200D01*
X137869000Y-32156200D02*
X137869000Y-29756200D01*
X138044000Y-32156200D02*
X138044000Y-29756200D01*
X138219000Y-32156200D02*
X138219000Y-29756200D01*
%TO.C,D24*%
X171869000Y-29756200D02*
X166069000Y-29756200D01*
X171869000Y-32156200D02*
X171869000Y-29756200D01*
X166069000Y-32156200D02*
X171869000Y-32156200D01*
X166144000Y-32156200D02*
X166144000Y-29756200D01*
X166269000Y-32156200D02*
X166269000Y-29756200D01*
X166044000Y-29756200D02*
X166044000Y-32156200D01*
X166444000Y-32156200D02*
X166444000Y-29756200D01*
X166619000Y-32156200D02*
X166619000Y-29756200D01*
X166794000Y-32156200D02*
X166794000Y-29756200D01*
%TO.C,D25*%
X186156000Y-29756200D02*
X180356000Y-29756200D01*
X186156000Y-32156200D02*
X186156000Y-29756200D01*
X180356000Y-32156200D02*
X186156000Y-32156200D01*
X180431000Y-32156200D02*
X180431000Y-29756200D01*
X180556000Y-32156200D02*
X180556000Y-29756200D01*
X180331000Y-29756200D02*
X180331000Y-32156200D01*
X180731000Y-32156200D02*
X180731000Y-29756200D01*
X180906000Y-32156200D02*
X180906000Y-29756200D01*
X181081000Y-32156200D02*
X181081000Y-29756200D01*
%TO.C,D26*%
X205206000Y-29756200D02*
X199406000Y-29756200D01*
X205206000Y-32156200D02*
X205206000Y-29756200D01*
X199406000Y-32156200D02*
X205206000Y-32156200D01*
X199481000Y-32156200D02*
X199481000Y-29756200D01*
X199606000Y-32156200D02*
X199606000Y-29756200D01*
X199381000Y-29756200D02*
X199381000Y-32156200D01*
X199781000Y-32156200D02*
X199781000Y-29756200D01*
X199956000Y-32156200D02*
X199956000Y-29756200D01*
X200131000Y-32156200D02*
X200131000Y-29756200D01*
%TO.C,D27*%
X224256000Y-29756200D02*
X218456000Y-29756200D01*
X224256000Y-32156200D02*
X224256000Y-29756200D01*
X218456000Y-32156200D02*
X224256000Y-32156200D01*
X218531000Y-32156200D02*
X218531000Y-29756200D01*
X218656000Y-32156200D02*
X218656000Y-29756200D01*
X218431000Y-29756200D02*
X218431000Y-32156200D01*
X218831000Y-32156200D02*
X218831000Y-29756200D01*
X219006000Y-32156200D02*
X219006000Y-29756200D01*
X219181000Y-32156200D02*
X219181000Y-29756200D01*
%TO.C,D28*%
X243306000Y-29756200D02*
X237506000Y-29756200D01*
X243306000Y-32156200D02*
X243306000Y-29756200D01*
X237506000Y-32156200D02*
X243306000Y-32156200D01*
X237581000Y-32156200D02*
X237581000Y-29756200D01*
X237706000Y-32156200D02*
X237706000Y-29756200D01*
X237481000Y-29756200D02*
X237481000Y-32156200D01*
X237881000Y-32156200D02*
X237881000Y-29756200D01*
X238056000Y-32156200D02*
X238056000Y-29756200D01*
X238231000Y-32156200D02*
X238231000Y-29756200D01*
%TO.C,D29*%
X262356000Y-29756200D02*
X256556000Y-29756200D01*
X262356000Y-32156200D02*
X262356000Y-29756200D01*
X256556000Y-32156200D02*
X262356000Y-32156200D01*
X256631000Y-32156200D02*
X256631000Y-29756200D01*
X256756000Y-32156200D02*
X256756000Y-29756200D01*
X256531000Y-29756200D02*
X256531000Y-32156200D01*
X256931000Y-32156200D02*
X256931000Y-29756200D01*
X257106000Y-32156200D02*
X257106000Y-29756200D01*
X257281000Y-32156200D02*
X257281000Y-29756200D01*
%TO.C,D30*%
X278662000Y-32599500D02*
X278662000Y-30199500D01*
X278487000Y-32599500D02*
X278487000Y-30199500D01*
X278312000Y-32599500D02*
X278312000Y-30199500D01*
X277912000Y-30199500D02*
X277912000Y-32599500D01*
X278137000Y-32599500D02*
X278137000Y-30199500D01*
X278012000Y-32599500D02*
X278012000Y-30199500D01*
X277937000Y-32599500D02*
X283737000Y-32599500D01*
X283737000Y-32599500D02*
X283737000Y-30199500D01*
X283737000Y-30199500D02*
X277937000Y-30199500D01*
%TO.C,D31*%
X26300000Y-51206200D02*
X26300000Y-48806200D01*
X26125000Y-51206200D02*
X26125000Y-48806200D01*
X25950000Y-51206200D02*
X25950000Y-48806200D01*
X25550000Y-48806200D02*
X25550000Y-51206200D01*
X25775000Y-51206200D02*
X25775000Y-48806200D01*
X25650000Y-51206200D02*
X25650000Y-48806200D01*
X25575000Y-51206200D02*
X31375000Y-51206200D01*
X31375000Y-51206200D02*
X31375000Y-48806200D01*
X31375000Y-48806200D02*
X25575000Y-48806200D01*
%TO.C,D32*%
X57568800Y-48806200D02*
X51768800Y-48806200D01*
X57568800Y-51206200D02*
X57568800Y-48806200D01*
X51768800Y-51206200D02*
X57568800Y-51206200D01*
X51843800Y-51206200D02*
X51843800Y-48806200D01*
X51968800Y-51206200D02*
X51968800Y-48806200D01*
X51743800Y-48806200D02*
X51743800Y-51206200D01*
X52143800Y-51206200D02*
X52143800Y-48806200D01*
X52318800Y-51206200D02*
X52318800Y-48806200D01*
X52493800Y-51206200D02*
X52493800Y-48806200D01*
%TO.C,D33*%
X76618800Y-48806200D02*
X70818800Y-48806200D01*
X76618800Y-51206200D02*
X76618800Y-48806200D01*
X70818800Y-51206200D02*
X76618800Y-51206200D01*
X70893800Y-51206200D02*
X70893800Y-48806200D01*
X71018800Y-51206200D02*
X71018800Y-48806200D01*
X70793800Y-48806200D02*
X70793800Y-51206200D01*
X71193800Y-51206200D02*
X71193800Y-48806200D01*
X71368800Y-51206200D02*
X71368800Y-48806200D01*
X71543800Y-51206200D02*
X71543800Y-48806200D01*
%TO.C,D34*%
X90593800Y-51206200D02*
X90593800Y-48806200D01*
X90418800Y-51206200D02*
X90418800Y-48806200D01*
X90243800Y-51206200D02*
X90243800Y-48806200D01*
X89843800Y-48806200D02*
X89843800Y-51206200D01*
X90068800Y-51206200D02*
X90068800Y-48806200D01*
X89943800Y-51206200D02*
X89943800Y-48806200D01*
X89868800Y-51206200D02*
X95668800Y-51206200D01*
X95668800Y-51206200D02*
X95668800Y-48806200D01*
X95668800Y-48806200D02*
X89868800Y-48806200D01*
%TO.C,D35*%
X109644000Y-51206200D02*
X109644000Y-48806200D01*
X109469000Y-51206200D02*
X109469000Y-48806200D01*
X109294000Y-51206200D02*
X109294000Y-48806200D01*
X108894000Y-48806200D02*
X108894000Y-51206200D01*
X109119000Y-51206200D02*
X109119000Y-48806200D01*
X108994000Y-51206200D02*
X108994000Y-48806200D01*
X108919000Y-51206200D02*
X114719000Y-51206200D01*
X114719000Y-51206200D02*
X114719000Y-48806200D01*
X114719000Y-48806200D02*
X108919000Y-48806200D01*
%TO.C,D36*%
X133769000Y-48806200D02*
X127969000Y-48806200D01*
X133769000Y-51206200D02*
X133769000Y-48806200D01*
X127969000Y-51206200D02*
X133769000Y-51206200D01*
X128044000Y-51206200D02*
X128044000Y-48806200D01*
X128169000Y-51206200D02*
X128169000Y-48806200D01*
X127944000Y-48806200D02*
X127944000Y-51206200D01*
X128344000Y-51206200D02*
X128344000Y-48806200D01*
X128519000Y-51206200D02*
X128519000Y-48806200D01*
X128694000Y-51206200D02*
X128694000Y-48806200D01*
%TO.C,D37*%
X147744000Y-51206200D02*
X147744000Y-48806200D01*
X147569000Y-51206200D02*
X147569000Y-48806200D01*
X147394000Y-51206200D02*
X147394000Y-48806200D01*
X146994000Y-48806200D02*
X146994000Y-51206200D01*
X147219000Y-51206200D02*
X147219000Y-48806200D01*
X147094000Y-51206200D02*
X147094000Y-48806200D01*
X147019000Y-51206200D02*
X152819000Y-51206200D01*
X152819000Y-51206200D02*
X152819000Y-48806200D01*
X152819000Y-48806200D02*
X147019000Y-48806200D01*
%TO.C,D38*%
X166794000Y-51206200D02*
X166794000Y-48806200D01*
X166619000Y-51206200D02*
X166619000Y-48806200D01*
X166444000Y-51206200D02*
X166444000Y-48806200D01*
X166044000Y-48806200D02*
X166044000Y-51206200D01*
X166269000Y-51206200D02*
X166269000Y-48806200D01*
X166144000Y-51206200D02*
X166144000Y-48806200D01*
X166069000Y-51206200D02*
X171869000Y-51206200D01*
X171869000Y-51206200D02*
X171869000Y-48806200D01*
X171869000Y-48806200D02*
X166069000Y-48806200D01*
%TO.C,D39*%
X185844000Y-51206200D02*
X185844000Y-48806200D01*
X185669000Y-51206200D02*
X185669000Y-48806200D01*
X185494000Y-51206200D02*
X185494000Y-48806200D01*
X185094000Y-48806200D02*
X185094000Y-51206200D01*
X185319000Y-51206200D02*
X185319000Y-48806200D01*
X185194000Y-51206200D02*
X185194000Y-48806200D01*
X185119000Y-51206200D02*
X190919000Y-51206200D01*
X190919000Y-51206200D02*
X190919000Y-48806200D01*
X190919000Y-48806200D02*
X185119000Y-48806200D01*
%TO.C,D40*%
X204894000Y-51206200D02*
X204894000Y-48806200D01*
X204719000Y-51206200D02*
X204719000Y-48806200D01*
X204544000Y-51206200D02*
X204544000Y-48806200D01*
X204144000Y-48806200D02*
X204144000Y-51206200D01*
X204369000Y-51206200D02*
X204369000Y-48806200D01*
X204244000Y-51206200D02*
X204244000Y-48806200D01*
X204169000Y-51206200D02*
X209969000Y-51206200D01*
X209969000Y-51206200D02*
X209969000Y-48806200D01*
X209969000Y-48806200D02*
X204169000Y-48806200D01*
%TO.C,D41*%
X223944000Y-51206200D02*
X223944000Y-48806200D01*
X223769000Y-51206200D02*
X223769000Y-48806200D01*
X223594000Y-51206200D02*
X223594000Y-48806200D01*
X223194000Y-48806200D02*
X223194000Y-51206200D01*
X223419000Y-51206200D02*
X223419000Y-48806200D01*
X223294000Y-51206200D02*
X223294000Y-48806200D01*
X223219000Y-51206200D02*
X229019000Y-51206200D01*
X229019000Y-51206200D02*
X229019000Y-48806200D01*
X229019000Y-48806200D02*
X223219000Y-48806200D01*
%TO.C,D42*%
X248069000Y-48806200D02*
X242269000Y-48806200D01*
X248069000Y-51206200D02*
X248069000Y-48806200D01*
X242269000Y-51206200D02*
X248069000Y-51206200D01*
X242344000Y-51206200D02*
X242344000Y-48806200D01*
X242469000Y-51206200D02*
X242469000Y-48806200D01*
X242244000Y-48806200D02*
X242244000Y-51206200D01*
X242644000Y-51206200D02*
X242644000Y-48806200D01*
X242819000Y-51206200D02*
X242819000Y-48806200D01*
X242994000Y-51206200D02*
X242994000Y-48806200D01*
%TO.C,D44*%
X279025000Y-48806200D02*
X273225000Y-48806200D01*
X279025000Y-51206200D02*
X279025000Y-48806200D01*
X273225000Y-51206200D02*
X279025000Y-51206200D01*
X273300000Y-51206200D02*
X273300000Y-48806200D01*
X273425000Y-51206200D02*
X273425000Y-48806200D01*
X273200000Y-48806200D02*
X273200000Y-51206200D01*
X273600000Y-51206200D02*
X273600000Y-48806200D01*
X273775000Y-51206200D02*
X273775000Y-48806200D01*
X273950000Y-51206200D02*
X273950000Y-48806200D01*
%TO.C,D45*%
X36137500Y-67856200D02*
X30337500Y-67856200D01*
X36137500Y-70256200D02*
X36137500Y-67856200D01*
X30337500Y-70256200D02*
X36137500Y-70256200D01*
X30412500Y-70256200D02*
X30412500Y-67856200D01*
X30537500Y-70256200D02*
X30537500Y-67856200D01*
X30312500Y-67856200D02*
X30312500Y-70256200D01*
X30712500Y-70256200D02*
X30712500Y-67856200D01*
X30887500Y-70256200D02*
X30887500Y-67856200D01*
X31062500Y-70256200D02*
X31062500Y-67856200D01*
%TO.C,D46*%
X48043800Y-67856200D02*
X42243800Y-67856200D01*
X48043800Y-70256200D02*
X48043800Y-67856200D01*
X42243800Y-70256200D02*
X48043800Y-70256200D01*
X42318800Y-70256200D02*
X42318800Y-67856200D01*
X42443800Y-70256200D02*
X42443800Y-67856200D01*
X42218800Y-67856200D02*
X42218800Y-70256200D01*
X42618800Y-70256200D02*
X42618800Y-67856200D01*
X42793800Y-70256200D02*
X42793800Y-67856200D01*
X42968800Y-70256200D02*
X42968800Y-67856200D01*
%TO.C,D47*%
X67093800Y-67856200D02*
X61293800Y-67856200D01*
X67093800Y-70256200D02*
X67093800Y-67856200D01*
X61293800Y-70256200D02*
X67093800Y-70256200D01*
X61368800Y-70256200D02*
X61368800Y-67856200D01*
X61493800Y-70256200D02*
X61493800Y-67856200D01*
X61268800Y-67856200D02*
X61268800Y-70256200D01*
X61668800Y-70256200D02*
X61668800Y-67856200D01*
X61843800Y-70256200D02*
X61843800Y-67856200D01*
X62018800Y-70256200D02*
X62018800Y-67856200D01*
%TO.C,D48*%
X81068800Y-70256200D02*
X81068800Y-67856200D01*
X80893800Y-70256200D02*
X80893800Y-67856200D01*
X80718800Y-70256200D02*
X80718800Y-67856200D01*
X80318800Y-67856200D02*
X80318800Y-70256200D01*
X80543800Y-70256200D02*
X80543800Y-67856200D01*
X80418800Y-70256200D02*
X80418800Y-67856200D01*
X80343800Y-70256200D02*
X86143800Y-70256200D01*
X86143800Y-70256200D02*
X86143800Y-67856200D01*
X86143800Y-67856200D02*
X80343800Y-67856200D01*
%TO.C,D49*%
X100119000Y-70256200D02*
X100119000Y-67856200D01*
X99944000Y-70256200D02*
X99944000Y-67856200D01*
X99769000Y-70256200D02*
X99769000Y-67856200D01*
X99369000Y-67856200D02*
X99369000Y-70256200D01*
X99594000Y-70256200D02*
X99594000Y-67856200D01*
X99469000Y-70256200D02*
X99469000Y-67856200D01*
X99394000Y-70256200D02*
X105194000Y-70256200D01*
X105194000Y-70256200D02*
X105194000Y-67856200D01*
X105194000Y-67856200D02*
X99394000Y-67856200D01*
%TO.C,D50*%
X119169000Y-70256200D02*
X119169000Y-67856200D01*
X118994000Y-70256200D02*
X118994000Y-67856200D01*
X118819000Y-70256200D02*
X118819000Y-67856200D01*
X118419000Y-67856200D02*
X118419000Y-70256200D01*
X118644000Y-70256200D02*
X118644000Y-67856200D01*
X118519000Y-70256200D02*
X118519000Y-67856200D01*
X118444000Y-70256200D02*
X124244000Y-70256200D01*
X124244000Y-70256200D02*
X124244000Y-67856200D01*
X124244000Y-67856200D02*
X118444000Y-67856200D01*
%TO.C,D51*%
X138219000Y-70256200D02*
X138219000Y-67856200D01*
X138044000Y-70256200D02*
X138044000Y-67856200D01*
X137869000Y-70256200D02*
X137869000Y-67856200D01*
X137469000Y-67856200D02*
X137469000Y-70256200D01*
X137694000Y-70256200D02*
X137694000Y-67856200D01*
X137569000Y-70256200D02*
X137569000Y-67856200D01*
X137494000Y-70256200D02*
X143294000Y-70256200D01*
X143294000Y-70256200D02*
X143294000Y-67856200D01*
X143294000Y-67856200D02*
X137494000Y-67856200D01*
%TO.C,D52*%
X157269000Y-70256200D02*
X157269000Y-67856200D01*
X157094000Y-70256200D02*
X157094000Y-67856200D01*
X156919000Y-70256200D02*
X156919000Y-67856200D01*
X156519000Y-67856200D02*
X156519000Y-70256200D01*
X156744000Y-70256200D02*
X156744000Y-67856200D01*
X156619000Y-70256200D02*
X156619000Y-67856200D01*
X156544000Y-70256200D02*
X162344000Y-70256200D01*
X162344000Y-70256200D02*
X162344000Y-67856200D01*
X162344000Y-67856200D02*
X156544000Y-67856200D01*
%TO.C,D53*%
X176319000Y-70256200D02*
X176319000Y-67856200D01*
X176144000Y-70256200D02*
X176144000Y-67856200D01*
X175969000Y-70256200D02*
X175969000Y-67856200D01*
X175569000Y-67856200D02*
X175569000Y-70256200D01*
X175794000Y-70256200D02*
X175794000Y-67856200D01*
X175669000Y-70256200D02*
X175669000Y-67856200D01*
X175594000Y-70256200D02*
X181394000Y-70256200D01*
X181394000Y-70256200D02*
X181394000Y-67856200D01*
X181394000Y-67856200D02*
X175594000Y-67856200D01*
%TO.C,D54*%
X195369000Y-70256200D02*
X195369000Y-67856200D01*
X195194000Y-70256200D02*
X195194000Y-67856200D01*
X195019000Y-70256200D02*
X195019000Y-67856200D01*
X194619000Y-67856200D02*
X194619000Y-70256200D01*
X194844000Y-70256200D02*
X194844000Y-67856200D01*
X194719000Y-70256200D02*
X194719000Y-67856200D01*
X194644000Y-70256200D02*
X200444000Y-70256200D01*
X200444000Y-70256200D02*
X200444000Y-67856200D01*
X200444000Y-67856200D02*
X194644000Y-67856200D01*
%TO.C,D55*%
X214419000Y-70256200D02*
X214419000Y-67856200D01*
X214244000Y-70256200D02*
X214244000Y-67856200D01*
X214069000Y-70256200D02*
X214069000Y-67856200D01*
X213669000Y-67856200D02*
X213669000Y-70256200D01*
X213894000Y-70256200D02*
X213894000Y-67856200D01*
X213769000Y-70256200D02*
X213769000Y-67856200D01*
X213694000Y-70256200D02*
X219494000Y-70256200D01*
X219494000Y-70256200D02*
X219494000Y-67856200D01*
X219494000Y-67856200D02*
X213694000Y-67856200D01*
%TO.C,D56*%
X238544000Y-67856200D02*
X232744000Y-67856200D01*
X238544000Y-70256200D02*
X238544000Y-67856200D01*
X232744000Y-70256200D02*
X238544000Y-70256200D01*
X232819000Y-70256200D02*
X232819000Y-67856200D01*
X232944000Y-70256200D02*
X232944000Y-67856200D01*
X232719000Y-67856200D02*
X232719000Y-70256200D01*
X233119000Y-70256200D02*
X233119000Y-67856200D01*
X233294000Y-70256200D02*
X233294000Y-67856200D01*
X233469000Y-70256200D02*
X233469000Y-67856200D01*
%TO.C,D57*%
X278387000Y-67537500D02*
X272587000Y-67537500D01*
X278387000Y-69937500D02*
X278387000Y-67537500D01*
X272587000Y-69937500D02*
X278387000Y-69937500D01*
X272662000Y-69937500D02*
X272662000Y-67537500D01*
X272787000Y-69937500D02*
X272787000Y-67537500D01*
X272562000Y-67537500D02*
X272562000Y-69937500D01*
X272962000Y-69937500D02*
X272962000Y-67537500D01*
X273137000Y-69937500D02*
X273137000Y-67537500D01*
X273312000Y-69937500D02*
X273312000Y-67537500D01*
%TO.C,D58*%
X274420000Y-86686500D02*
X268620000Y-86686500D01*
X274420000Y-89086500D02*
X274420000Y-86686500D01*
X268620000Y-89086500D02*
X274420000Y-89086500D01*
X268695000Y-89086500D02*
X268695000Y-86686500D01*
X268820000Y-89086500D02*
X268820000Y-86686500D01*
X268595000Y-86686500D02*
X268595000Y-89086500D01*
X268995000Y-89086500D02*
X268995000Y-86686500D01*
X269170000Y-89086500D02*
X269170000Y-86686500D01*
X269345000Y-89086500D02*
X269345000Y-86686500D01*
%TO.C,D59*%
X57991700Y-86851600D02*
X52191700Y-86851600D01*
X57991700Y-89251600D02*
X57991700Y-86851600D01*
X52191700Y-89251600D02*
X57991700Y-89251600D01*
X52266700Y-89251600D02*
X52266700Y-86851600D01*
X52391700Y-89251600D02*
X52391700Y-86851600D01*
X52166700Y-86851600D02*
X52166700Y-89251600D01*
X52566700Y-89251600D02*
X52566700Y-86851600D01*
X52741700Y-89251600D02*
X52741700Y-86851600D01*
X52916700Y-89251600D02*
X52916700Y-86851600D01*
%TO.C,D60*%
X71543800Y-89306200D02*
X71543800Y-86906200D01*
X71368800Y-89306200D02*
X71368800Y-86906200D01*
X71193800Y-89306200D02*
X71193800Y-86906200D01*
X70793800Y-86906200D02*
X70793800Y-89306200D01*
X71018800Y-89306200D02*
X71018800Y-86906200D01*
X70893800Y-89306200D02*
X70893800Y-86906200D01*
X70818800Y-89306200D02*
X76618800Y-89306200D01*
X76618800Y-89306200D02*
X76618800Y-86906200D01*
X76618800Y-86906200D02*
X70818800Y-86906200D01*
%TO.C,D61*%
X152506000Y-89306200D02*
X152506000Y-86906200D01*
X152331000Y-89306200D02*
X152331000Y-86906200D01*
X152156000Y-89306200D02*
X152156000Y-86906200D01*
X151756000Y-86906200D02*
X151756000Y-89306200D01*
X151981000Y-89306200D02*
X151981000Y-86906200D01*
X151856000Y-89306200D02*
X151856000Y-86906200D01*
X151781000Y-89306200D02*
X157581000Y-89306200D01*
X157581000Y-89306200D02*
X157581000Y-86906200D01*
X157581000Y-86906200D02*
X151781000Y-86906200D01*
%TO.C,D62*%
X233469000Y-89306200D02*
X233469000Y-86906200D01*
X233294000Y-89306200D02*
X233294000Y-86906200D01*
X233119000Y-89306200D02*
X233119000Y-86906200D01*
X232719000Y-86906200D02*
X232719000Y-89306200D01*
X232944000Y-89306200D02*
X232944000Y-86906200D01*
X232819000Y-89306200D02*
X232819000Y-86906200D01*
X232744000Y-89306200D02*
X238544000Y-89306200D01*
X238544000Y-89306200D02*
X238544000Y-86906200D01*
X238544000Y-86906200D02*
X232744000Y-86906200D01*
%TO.C,D63*%
X247496000Y-89703800D02*
X247496000Y-87303800D01*
X247321000Y-89703800D02*
X247321000Y-87303800D01*
X247146000Y-89703800D02*
X247146000Y-87303800D01*
X246746000Y-87303800D02*
X246746000Y-89703800D01*
X246971000Y-89703800D02*
X246971000Y-87303800D01*
X246846000Y-89703800D02*
X246846000Y-87303800D01*
X246771000Y-89703800D02*
X252571000Y-89703800D01*
X252571000Y-89703800D02*
X252571000Y-87303800D01*
X252571000Y-87303800D02*
X246771000Y-87303800D01*
D10*
%TO.C,U1*%
X44985900Y-27604700D02*
X44985900Y-9824700D01*
X44985900Y-9824700D02*
X14505900Y-9824700D01*
X14505900Y-9824700D02*
X14505900Y-14904700D01*
X14505900Y-14904700D02*
X11965900Y-14904700D01*
X11965900Y-14904700D02*
X11965900Y-22524700D01*
X11965900Y-22524700D02*
X14505900Y-22524700D01*
X14505900Y-22524700D02*
X14505900Y-27604700D01*
X14505900Y-27604700D02*
X44985900Y-27604700D01*
%TD*%
M02*
