M48
INCH
T1C0.0157
T2C0.0276
T3C0.0394
T4C0.0433
%
G90
G05
T1
X0.6678Y-0.6258
X1.4596Y-1.1874
X1.5063Y-1.8726
X1.7939Y-2.0466
X1.8191Y-0.5521
X2.2158Y-1.0701
X2.5244Y-2.4648
X2.7874Y-0.8327
X3.0986Y-1.0925
X3.2011Y-2.005
X3.2592Y-1.8484
X3.8492Y-1.0662
X4.0829Y-2.0599
X4.1419Y-1.6637
X4.7195Y-1.6808
X4.7691Y-2.2031
X5.3902Y-1.5991
X5.5051Y-1.4133
X5.5805Y-2.3349
X5.8231Y-0.8298
X6.2237Y-1.4181
X6.3782Y-2.043
X7.1109Y-2.4642
X7.1288Y-2.1597
X7.7878Y-1.9914
X7.892Y-2.4954
X9.1726Y-2.0233
X9.2721Y-1.3171
X9.3003Y-2.0503
X10.4382Y-1.529
X10.4855Y-1.4692
X10.562Y-1.3277
X10.6092Y-1.2542
T2
X0.7374Y-0.2206
X0.8777Y-1.2187
X0.9715Y-1.9687
X1.0444Y-0.2206
X1.159Y-2.7187
X1.1848Y-1.2187
X1.2785Y-1.9687
X1.4579Y-0.2227
X1.466Y-2.7187
X1.6277Y-2.7187
X1.7649Y-0.2227
X1.8152Y-1.2187
X1.9348Y-2.7187
X2.0027Y-1.9687
X2.0194Y-3.4666
X2.1223Y-1.2187
X2.1902Y-0.4687
X2.3098Y-1.9687
X2.3264Y-3.4666
X2.3777Y-2.7187
X2.4973Y-0.4687
X2.5652Y-1.2187
X2.6848Y-2.7187
X2.7527Y-1.9687
X2.7527Y-3.4687
X2.8723Y-1.2187
X2.9402Y-0.4687
X3.0598Y-1.9687
X3.0598Y-3.4687
X3.1277Y-2.7187
X3.2473Y-0.4687
X3.3152Y-1.2187
X3.4348Y-2.7187
X3.5027Y-1.9687
X3.6223Y-1.2187
X3.6881Y-0.4945
X3.8098Y-1.9687
X3.8777Y-2.7187
X3.9951Y-0.4945
X4.0652Y-1.2187
X4.1848Y-2.7187
X4.2527Y-1.9687
X4.3723Y-1.2187
X4.4402Y-0.4687
X4.5598Y-1.9687
X4.6277Y-2.7187
X4.7473Y-0.4687
X4.8152Y-1.2187
X4.9348Y-2.7187
X5.0027Y-1.9687
X5.1223Y-1.2187
X5.1902Y-0.4687
X5.3098Y-1.9687
X5.3777Y-1.2187
X5.3777Y-2.7187
X5.4973Y-0.4687
X5.6848Y-1.2187
X5.6848Y-2.7187
X5.7527Y-1.9687
X5.9402Y-0.4687
X5.9402Y-3.4687
X6.0598Y-1.9687
X6.1277Y-2.7187
X6.2473Y-0.4687
X6.2473Y-3.4687
X6.4348Y-2.7187
X6.5027Y-1.2187
X6.5027Y-1.9687
X6.6902Y-0.4687
X6.8098Y-1.2187
X6.8098Y-1.9687
X6.8777Y-2.7187
X6.9973Y-0.4687
X7.0652Y-1.2187
X7.1848Y-2.7187
X7.2527Y-1.9687
X7.3723Y-1.2187
X7.4402Y-0.4687
X7.5598Y-1.9687
X7.6277Y-2.7187
X7.7473Y-0.4687
X7.8152Y-1.2187
X7.9348Y-2.7187
X8.0027Y-1.9687
X8.1223Y-1.2187
X8.1902Y-0.4687
X8.3098Y-1.9687
X8.3777Y-2.7187
X8.4973Y-0.4687
X8.5652Y-1.2187
X8.6848Y-2.7187
X8.7527Y-1.9687
X8.8723Y-1.2187
X8.9402Y-0.4687
X9.0598Y-1.9687
X9.1277Y-2.7187
X9.1277Y-3.4687
X9.2473Y-0.4687
X9.3152Y-1.2187
X9.4348Y-2.7187
X9.4348Y-3.4687
X9.5027Y-1.9687
X9.6223Y-1.2187
X9.68Y-3.4844
X9.6902Y-0.4687
X9.8098Y-1.9687
X9.987Y-3.4844
X9.9973Y-0.4687
X10.0652Y-1.2187
X10.3465Y-0.375
X10.3723Y-1.2187
X10.5402Y-3.4601
X10.6535Y-0.375
X10.6963Y-2.7062
X10.7215Y-1.9687
X10.8163Y-0.3797
X10.8472Y-3.4601
X10.907Y-1.2362
X11.0034Y-2.7062
X11.0285Y-1.9687
X11.1234Y-0.3797
X11.2141Y-1.2362
X11.2839Y-0.375
X11.591Y-0.375
T3
X6.6985Y-0.2735
X6.7985Y-0.2735
X6.8985Y-0.2735
X6.9985Y-0.2735
T4
X0.6211Y-0.4368
X0.6211Y-1.0368
X0.7211Y-0.4368
X0.7211Y-1.0368
X0.8211Y-0.4368
X0.8211Y-1.0368
X0.9211Y-0.4368
X0.9211Y-1.0368
X1.0211Y-0.4368
X1.0211Y-1.0368
X1.1211Y-0.4368
X1.1211Y-1.0368
X1.2211Y-0.4368
X1.2211Y-1.0368
X1.3211Y-0.4368
X1.3211Y-1.0368
X1.4211Y-0.4368
X1.4211Y-1.0368
X1.5211Y-0.4368
X1.5211Y-1.0368
X1.6211Y-0.4368
X1.6211Y-1.0368
X1.7211Y-0.4368
X1.7211Y-1.0368
T0
M30
