M48
INCH
T1C0.0689
T2C0.1181
T3C0.1200
T4C0.1570
%
G90
G05
T1
X0.6437Y-0.8437
X0.7375Y-2.3437
X0.7375Y-3.0937
X0.8313Y-1.5937
X0.925Y-2.3437
X1.0437Y-0.8437
X1.1125Y-3.0937
X1.1375Y-2.3437
X1.1375Y-3.0937
X1.2313Y-1.5937
X1.325Y-2.3437
X1.3937Y-0.8437
X1.5125Y-3.0937
X1.5813Y-3.0937
X1.7687Y-1.5937
X1.7687Y-3.8437
X1.7937Y-0.8437
X1.9563Y-2.3437
X1.9813Y-3.0937
X2.1437Y-0.8437
X2.1687Y-1.5937
X2.1687Y-3.8437
X2.3313Y-3.0937
X2.3563Y-2.3437
X2.5187Y-1.5937
X2.5437Y-0.8437
X2.7063Y-2.3437
X2.7063Y-3.8437
X2.7313Y-3.0937
X2.8937Y-0.8437
X2.9187Y-1.5937
X3.0813Y-3.0937
X3.1063Y-2.3437
X3.1063Y-3.8437
X3.2687Y-1.5937
X3.2937Y-0.8437
X3.4563Y-2.3437
X3.4813Y-3.0937
X3.6437Y-0.8437
X3.6687Y-1.5937
X3.8313Y-3.0937
X3.8563Y-2.3437
X4.0187Y-1.5937
X4.0437Y-0.8437
X4.2063Y-2.3437
X4.2313Y-3.0937
X4.3937Y-0.8437
X4.4187Y-1.5937
X4.5813Y-3.0937
X4.6063Y-2.3437
X4.7687Y-1.5937
X4.7937Y-0.8437
X4.9563Y-2.3437
X4.9813Y-3.0937
X5.1437Y-0.8437
X5.1687Y-1.5937
X5.3313Y-3.0937
X5.3563Y-2.3437
X5.5187Y-1.5937
X5.5437Y-0.8437
X5.7063Y-2.3437
X5.7313Y-3.0937
X5.8937Y-0.8437
X5.8937Y-3.8437
X5.9187Y-1.5937
X6.0813Y-3.0937
X6.1063Y-2.3437
X6.2687Y-1.5937
X6.2937Y-0.8437
X6.2937Y-3.8437
X6.4563Y-2.3437
X6.4813Y-3.0937
X6.6437Y-0.8437
X6.6687Y-1.5937
X6.8313Y-3.0937
X6.8563Y-2.3437
X7.0187Y-1.5937
X7.0437Y-0.8437
X7.2063Y-2.3437
X7.2313Y-3.0937
X7.3937Y-0.8437
X7.4187Y-1.5937
X7.5813Y-3.0937
X7.6063Y-2.3437
X7.7687Y-1.5937
X7.7937Y-0.8437
X7.9563Y-2.3437
X7.9813Y-3.0937
X8.1437Y-0.8437
X8.1687Y-1.5937
X8.3313Y-3.0937
X8.3563Y-2.3437
X8.5187Y-1.5937
X8.5437Y-0.8437
X8.7063Y-2.3437
X8.7313Y-3.0937
X8.8937Y-0.8437
X8.9187Y-1.5937
X9.0813Y-3.0937
X9.0813Y-3.8437
X9.1063Y-2.3437
X9.2687Y-1.5937
X9.2937Y-0.8437
X9.4563Y-2.3437
X9.4813Y-3.0937
X9.4813Y-3.8437
X9.6437Y-0.8437
X9.6687Y-1.5937
X9.8563Y-2.3437
X10.0187Y-1.5937
X10.0187Y-3.8437
X10.0437Y-0.8437
X10.1125Y-3.0937
X10.3937Y-0.8437
X10.4187Y-1.5937
X10.4187Y-3.8437
X10.4875Y-3.0937
X10.5125Y-3.0937
X10.675Y-2.3437
X10.7687Y-0.8437
X10.7937Y-0.8437
X10.8875Y-3.0937
X10.9563Y-1.5937
X11.075Y-2.3437
X11.1437Y-0.8437
X11.1437Y-3.0937
X11.1687Y-0.8437
X11.3563Y-1.5937
X11.5437Y-0.8437
X11.5437Y-3.0937
T2
X0.6937Y-0.7437
X0.8375Y-2.5437
X0.8375Y-3.2937
X0.8813Y-1.4937
X0.9437Y-0.6437
X0.975Y-2.2437
X1.0875Y-2.4437
X1.0875Y-3.1937
X1.1313Y-1.3937
X1.1625Y-2.9937
X1.225Y-2.1437
X1.4125Y-2.8937
X1.4437Y-0.7437
X1.6813Y-3.2937
X1.6937Y-0.6437
X1.8187Y-1.4937
X1.8187Y-3.7437
X1.9313Y-3.1937
X2.0063Y-2.2437
X2.0687Y-1.3937
X2.0687Y-3.6437
X2.1937Y-0.7437
X2.2563Y-2.1437
X2.3813Y-2.9937
X2.4437Y-0.6437
X2.5687Y-1.4937
X2.6313Y-2.8937
X2.7563Y-2.2437
X2.7563Y-3.7437
X2.8187Y-1.3937
X2.9437Y-0.7437
X3.0063Y-2.1437
X3.0063Y-3.6437
X3.1313Y-2.9937
X3.1937Y-0.6437
X3.3187Y-1.4937
X3.3813Y-2.8937
X3.5063Y-2.2437
X3.5687Y-1.3937
X3.6937Y-0.7437
X3.7563Y-2.1437
X3.8813Y-2.9937
X3.9437Y-0.6437
X4.0687Y-1.4937
X4.1313Y-2.8937
X4.2563Y-2.2437
X4.3187Y-1.3937
X4.4437Y-0.7437
X4.5063Y-2.1437
X4.6313Y-2.9937
X4.6937Y-0.6437
X4.8187Y-1.4937
X4.8813Y-2.8937
X5.0063Y-2.2437
X5.0687Y-1.3937
X5.1937Y-0.7437
X5.2563Y-2.1437
X5.3813Y-2.9937
X5.4437Y-0.6437
X5.5687Y-1.4937
X5.6313Y-2.8937
X5.7563Y-2.2437
X5.8187Y-1.3937
X5.9437Y-0.7437
X5.9437Y-3.7437
X6.0063Y-2.1437
X6.1313Y-2.9937
X6.1937Y-0.6437
X6.1937Y-3.6437
X6.3187Y-1.4937
X6.3813Y-2.8937
X6.5063Y-2.2437
X6.5687Y-1.3937
X6.6937Y-0.7437
X6.7563Y-2.1437
X6.8813Y-2.9937
X6.9437Y-0.6437
X7.0687Y-1.4937
X7.1313Y-2.8937
X7.2563Y-2.2437
X7.3187Y-1.3937
X7.4437Y-0.7437
X7.5063Y-2.1437
X7.6313Y-2.9937
X7.6937Y-0.6437
X7.8187Y-1.4937
X7.8813Y-2.8937
X8.0063Y-2.2437
X8.0687Y-1.3937
X8.1937Y-0.7437
X8.2563Y-2.1437
X8.3813Y-2.9937
X8.4437Y-0.6437
X8.5687Y-1.4937
X8.6313Y-2.8937
X8.7563Y-2.2437
X8.8187Y-1.3937
X8.9437Y-0.7437
X9.0063Y-2.1437
X9.1313Y-2.9937
X9.1313Y-3.7437
X9.1937Y-0.6437
X9.3187Y-1.4937
X9.3813Y-2.8937
X9.3813Y-3.6437
X9.5063Y-2.2437
X9.5687Y-1.3937
X9.6937Y-0.7437
X9.7563Y-2.1437
X9.9437Y-0.6437
X10.0687Y-1.4937
X10.0687Y-3.7437
X10.2125Y-3.2937
X10.3187Y-1.3937
X10.3187Y-3.6437
X10.4625Y-3.1937
X10.4937Y-1.0437
X10.5375Y-2.9937
X10.725Y-2.2437
X10.7437Y-0.9437
X10.7875Y-2.8937
X10.8187Y-0.7437
X10.975Y-2.1437
X11.0063Y-1.4937
X11.0687Y-0.6437
X11.2437Y-1.0437
X11.2437Y-3.2937
X11.2563Y-1.3937
X11.4937Y-0.9437
X11.4937Y-3.1937
T3
X0.8425Y-2.8187
X1.7825Y-2.8187
X3.8437Y-3.5687
X8.3437Y-3.5687
X10.2175Y-2.8187
X10.405Y-2.0687
X10.4987Y-0.5687
X11.1575Y-2.8187
X11.345Y-2.0687
X11.4387Y-0.5687
T4
X0.8425Y-3.4187
X0.8437Y-0.8437
X0.9375Y-2.3437
X0.9375Y-3.0937
X1.0313Y-1.5937
X1.125Y-2.3437
X1.3125Y-3.0937
X1.5937Y-0.8437
X1.7813Y-3.0937
X1.7825Y-3.4187
X1.9687Y-1.5937
X1.9687Y-3.8437
X2.1563Y-2.3437
X2.3437Y-0.8437
X2.5313Y-3.0937
X2.7187Y-1.5937
X2.9063Y-2.3437
X2.9063Y-3.8437
X3.0937Y-0.8437
X3.2813Y-3.0937
X3.4687Y-1.5937
X3.6563Y-2.3437
X3.8437Y-4.1687
X3.8437Y-0.8437
X4.0313Y-3.0937
X4.2187Y-1.5937
X4.4063Y-2.3437
X4.5937Y-0.8437
X4.7813Y-3.0937
X4.9687Y-1.5937
X5.1563Y-2.3437
X5.3437Y-0.8437
X5.5313Y-3.0937
X5.7187Y-1.5937
X5.9063Y-2.3437
X6.0937Y-0.8437
X6.0937Y-3.8437
X6.2813Y-3.0937
X6.4687Y-1.5937
X6.6563Y-2.3437
X6.8437Y-0.8437
X7.0313Y-3.0937
X7.2187Y-1.5937
X7.4063Y-2.3437
X7.5937Y-0.8437
X7.7813Y-3.0937
X7.9687Y-1.5937
X8.1563Y-2.3437
X8.3437Y-0.8437
X8.3437Y-4.1687
X8.5313Y-3.0937
X8.7187Y-1.5937
X8.9063Y-2.3437
X9.0937Y-0.8437
X9.2813Y-3.0937
X9.2813Y-3.8437
X9.4687Y-1.5937
X9.6563Y-2.3437
X9.8437Y-0.8437
X10.2175Y-3.4187
X10.2187Y-1.5937
X10.2187Y-3.8437
X10.3125Y-3.0937
X10.405Y-2.6687
X10.4987Y-1.1687
X10.5937Y-0.8437
X10.6875Y-3.0937
X10.875Y-2.3437
X10.9687Y-0.8437
X11.1563Y-1.5937
X11.1575Y-3.4187
X11.3437Y-0.8437
X11.3437Y-3.0937
X11.345Y-2.6687
X11.4387Y-1.1687
T0
M30
